<?xml version="1.0" standalone="no"?>
<!DOCTYPE svg PUBLIC "-//W3C//DTD SVG 20010904//EN"
 "http://www.w3.org/TR/2001/REC-SVG-20010904/DTD/svg10.dtd">
<svg version="1.0" xmlns="http://www.w3.org/2000/svg"
 width="512.000000pt" height="512.000000pt" viewBox="0 0 512.000000 512.000000"
 preserveAspectRatio="xMidYMid meet">

<g transform="translate(0.000000,512.000000) scale(0.100000,-0.100000)"
fill="#1F6F54" stroke="none">
<path d="M1325 5106 c-184 -46 -329 -206 -355 -391 -13 -96 -13 -3896 0 -3989
22 -149 121 -286 258 -355 l62 -31 0 -119 c0 -106 2 -121 23 -152 63 -94 193
-88 252 12 15 26 21 57 23 136 l4 103 968 0 968 0 4 -103 c2 -79 8 -110 23
-136 59 -100 189 -106 252 -12 21 31 23 46 23 152 l0 119 62 31 c137 69 236
206 258 355 13 93 13 3893 0 3989 -27 189 -181 355 -368 394 -80 17 -2389 14
-2457 -3z m2434 -306 c48 -24 78 -60 91 -110 6 -24 9 -272 8 -686 l-3 -649
-1295 0 -1295 0 -3 649 c-1 414 2 662 8 686 13 49 43 86 88 110 36 19 70 19
1200 20 1138 0 1164 0 1201 -20z m101 -2877 c0 -641 -4 -1145 -10 -1167 -12
-54 -38 -87 -90 -114 l-44 -22 -1156 0 -1156 0 -44 22 c-52 27 -78 60 -90 114
-6 22 -10 526 -10 1167 l0 1127 1300 0 1300 0 0 -1127z"/>
<path d="M1691 4458 c-80 -42 -82 -49 -79 -385 l3 -293 37 -37 c33 -32 44 -37
95 -40 73 -5 116 19 143 80 18 38 20 67 20 302 0 232 -2 264 -19 301 -37 82
-123 113 -200 72z"/>
<path d="M1690 2693 c-19 -10 -45 -33 -57 -52 l-23 -34 0 -526 c0 -507 1 -527
20 -559 59 -96 205 -95 258 1 15 29 17 79 17 559 0 516 0 527 -21 554 -50 68
-129 91 -194 57z"/>
</g>
</svg>
